<?xml version="1.0" encoding="utf-8" standalone="yes"?>
<!DOCTYPE svg PUBLIC "-//W3C//DTD SVG 1.1//EN" "http://www.w3.org/Graphics/SVG/1.1/DTD/svg11.dtd">
<svg width="568" height="508" viewBox="0 0 568 508" style="fill:none;stroke:none;fill-rule:evenodd;clip-rule:evenodd;stroke-linecap:round;stroke-linejoin:round;stroke-miterlimit:1.5;" version="1.1" xmlns="http://www.w3.org/2000/svg" xmlns:xlink="http://www.w3.org/1999/xlink"><style class="text-font-style fontImports" data-font-family="Shantell Sans">@import url('https://fonts.googleapis.com/css2?family=Shantell+Sans:wght@300..800&amp;display=block');</style><g id="items" style="isolation: isolate"><g id="blend" style="mix-blend-mode: normal"><g id="g-root-0.cr-big_cr_mcydrwb56ryh-fill" data-item-order="-82940" transform="translate(184, 220)"><g id="0.cr-big_cr_mcydrwb56ryh-fill" stroke="none" fill="#ebebeb"><g><path d="M 135 57.4L 124.3 39.5L 104.2 44.9L 117.8 67.7ZM 104.2 44.9L 103 111L 123.1 108.1L 124.3 39.5ZM 123.1 108.1L 94.3 16.2L 74.7 20.6L 103 111ZM 74.7 20.6L 89.2 120L 108.8 115.8L 94.3 16.2ZM 108.8 115.8L 76.9 6.5L 57.1 10L 89.2 120ZM 57.1 10L 64.2 126.9L 84 123.1L 76.9 6.5ZM 84 123.1L 48.6 15.9L 29.1 20.7L 64.2 126.9ZM 29.1 20.7L 46.4 122.7L 65.7 117.1L 48.6 15.9ZM 65.7 117.1L 32.3 37L 12.4 41.4L 46.4 122.7ZM 12.4 41.4L 14.2 91.5L 34.1 88.5L 32.3 37ZM 34.1 88.5L 30.6 75.8L 11.3 81L 14.2 91.5Z" fill-rule="nonzero"></path></g></g></g><g id="g-root-4.cu_sy_hx4vngb56sqq-fill" data-item-order="-82936" transform="translate(100.0076904296875, 136.007568359375)"><g id="4.cu_sy_hx4vngb56sqq-fill" stroke="none" fill="#fff8b6"><g><path d="M 8.49231 152.992432L 14.19231 155.792432L 31.89231 142.092432L 17.29231 134.992432ZM 31.89231 142.092432L 26.79231 117.192432L 8.59231 127.792432L 14.19231 155.792432ZM 8.59231 127.792432L 40.29231 155.392432L 55.99231 142.492432L 26.79231 117.192432ZM 55.99231 142.492432L 27.59231 93.292432L 11.79231 106.092432L 40.29231 155.392432ZM 11.79231 106.092432L 64.89231 153.992432L 80.89231 141.492432L 27.59231 93.292432ZM 80.89231 141.492432L 45.09231 72.492432L 28.59231 84.092432L 64.89231 153.992432ZM 28.59231 84.092432L 85.39231 144.792432L 100.89231 132.092432L 45.09231 72.492432ZM 100.89231 132.092432L 49.09231 58.792432L 33.99231 71.892432L 85.39231 144.792432ZM 33.99231 71.892432L 90.69231 125.592432L 107.29231 113.692432L 49.09231 58.792432ZM 107.29231 113.692432L 74.19231 40.892432L 57.39231 52.292432L 90.69231 125.592432ZM 57.39231 52.292432L 108.79231 105.592432L 124.79231 93.292432L 74.19231 40.892432ZM 124.79231 93.292432L 85.59231 29.192432L 69.59231 41.492432L 108.79231 105.592432ZM 69.59231 41.492432L 125.19231 99.292432L 145.49231 91.592432L 85.59231 29.192432ZM 145.49231 91.592432L 146.79231 59.392432L 126.49231 65.292432L 125.19231 99.292432ZM 126.49231 65.292432L 139.39231 83.992432L 155.89231 72.692432L 146.79231 59.392432ZM 39.39231 156.492432L 55.39231 170.592432L 68.59231 155.592432L 52.69231 141.492432ZM 89.09231 26.992432L 117.99231 63.792432L 136.99231 55.492432L 104.79231 14.592432ZM 136.99231 55.492432L 129.09231 7.492432L 110.39231 17.092432L 117.99231 63.792432ZM 110.39231 17.092432L 135.99231 42.392432L 155.09231 33.092432L 129.09231 7.492432ZM 155.09231 33.092432L 151.89231 5.692432L 132.79231 15.092432L 135.99231 42.392432ZM 132.79231 15.092432L 143.09231 24.992432L 156.99231 10.592432L 151.89231 5.692432Z" fill-rule="nonzero"></path></g></g></g><g id="g-root-3.cu_sy_hx4vngb56sqr-fill" data-item-order="-82932" transform="translate(100.0078125, 280)"><g id="3.cu_sy_hx4vngb56sqr-fill" stroke="none" fill="#e9ffb9"><g><path d="M 148.892187 162.7L 160.492188 149.7L 150.192188 131.3L 133.992188 149.3ZM 150.192188 131.3L 109.792188 139L 119.592188 157.5L 160.492188 149.7ZM 119.592188 157.5L 163.492188 113.7L 151.192188 97.7L 109.792188 139ZM 151.192188 97.7L 90.192187 133L 102.792188 148.8L 163.492188 113.7ZM 102.792188 148.8L 154.992188 92.5L 142.192188 76.8L 90.192187 133ZM 142.192188 76.8L 72.892187 119L 85.392187 134.8L 154.992188 92.5ZM 85.392187 134.8L 140.392187 78.5L 127.892187 62.6L 72.892187 119ZM 127.892187 62.6L 54.192187 106.6L 66.092188 122.8L 140.392187 78.5ZM 66.092188 122.8L 123.292188 71.1L 111.492188 54.8L 54.192187 106.6ZM 111.492188 54.8L 45.492188 91.8L 57.692187 107.9L 123.292188 71.1ZM 57.692187 107.9L 107.992188 57.7L 96.192187 41.1L 45.492188 91.8ZM 96.192187 41.1L 28.392188 73.8L 40.792188 90.1L 107.992188 57.7ZM 40.792188 90.1L 94.792188 27.4L 83.992188 9.3L 28.392188 73.8ZM 83.992188 9.3L 61.792188 14L 68.892187 33L 94.792188 27.4ZM 68.892187 33L 85.892187 23.7L 76.392187 6.1L 61.792188 14ZM 33.492188 76.9L 62.692187 38.9L 50.192187 22.4L 17.692187 64.7ZM 50.192187 22.4L 12.592187 37.3L 24.992188 53.9L 62.692187 38.9ZM 24.992188 53.9L 46.392187 26.7L 36.092187 7.5L 12.592187 37.3ZM 36.092187 7.5L 6.692187 9.8L 15.192187 29.2L 46.392187 26.7ZM 15.192187 29.2L 21.792188 23L 8.092187 8.4L 6.692187 9.8Z" fill-rule="nonzero"></path></g></g></g><g id="g-root-2.cu_sy_91hvekb56tjg-fill" data-item-order="-82928" transform="translate(243.9993896484375, 258.1610107421875)"><g id="2.cu_sy_91hvekb56tjg-fill" stroke="none" fill="#c8ffe5"><g><path d="M 158.90061 34.138989L 154.40061 28.838989L 134.20061 36.038989L 143.70061 47.138989ZM 134.20061 36.038989L 133.40061 66.938989L 153.70061 58.638989L 154.40061 28.838989ZM 153.70061 58.638989L 113.30061 19.838989L 97.60061 32.438989L 133.40061 66.938989ZM 97.60061 32.438989L 134.80061 93.238989L 150.10061 79.938989L 113.30061 19.838989ZM 150.10061 79.938989L 93.00061 32.138989L 77.80061 45.438989L 134.80061 93.238989ZM 77.80061 45.438989L 122.10061 115.538989L 138.00061 103.238989L 93.00061 32.138989ZM 138.00061 103.238989L 81.60061 43.538989L 65.20061 55.238989L 122.10061 115.538989ZM 65.20061 55.238989L 105.50061 132.138989L 122.00061 120.638989L 81.60061 43.538989ZM 122.00061 120.638989L 66.60061 59.238989L 50.80061 71.638989L 105.50061 132.138989ZM 50.80061 71.638989L 100.40061 145.938989L 115.70061 132.738989L 66.60061 59.238989ZM 115.70061 132.738989L 50.30061 73.338989L 34.60061 86.038989L 100.40061 145.938989ZM 34.60061 86.038989L 80.10061 162.938989L 96.00061 150.438989L 50.30061 73.338989ZM 96.00061 150.438989L 26.90061 82.738989L 11.40061 95.538989L 80.10061 162.938989ZM 11.40061 95.538989L 59.80061 168.838989L 74.80061 155.238989L 26.90061 82.738989ZM 74.80061 155.238989L 39.90061 126.838989L 23.10061 139.038989L 59.80061 168.838989ZM 23.10061 139.038989L 35.60061 171.538989L 52.10061 158.838989L 39.90061 126.838989ZM 52.10061 158.838989L 27.30061 140.638989L 8.90061 152.038989L 35.60061 171.538989ZM 8.90061 152.038989L 13.80061 181.238989L 31.40061 165.338989L 27.30061 140.638989ZM 31.40061 165.338989L 10.70061 159.638989L 5.50061 178.938989L 13.80061 181.238989ZM 29.20061 109.038989L 17.70061 102.438989L 7.70061 119.738989L 19.20061 126.338989Z" fill-rule="nonzero"></path></g></g></g><g id="g-root-1.cu_sy_91hvekb56tjh-fill" data-item-order="-82924" transform="translate(221.9580078125, 136.0076904296875)"><g id="1.cu_sy_91hvekb56tjh-fill" stroke="none" fill="#d1f4ff"><g><path d="M 27.641992 4.69231L 24.641992 13.59231L 39.441992 32.09231L 46.541992 11.09231ZM 39.441992 32.09231L 73.741992 28.59231L 66.341992 9.19231L 24.641992 13.59231ZM 66.341992 9.19231L 15.541992 46.09231L 25.541992 63.49231L 73.741992 28.59231ZM 25.541992 63.49231L 97.041992 31.39231L 86.241992 14.39231L 15.541992 46.09231ZM 86.241992 14.39231L 25.841992 66.59231L 36.941992 83.39231L 97.041992 31.39231ZM 36.941992 83.39231L 116.641992 44.29231L 105.441992 27.49231L 25.841992 66.59231ZM 105.441992 27.49231L 44.341992 81.89231L 55.741992 98.59231L 116.641992 44.29231ZM 55.741992 98.59231L 135.641992 58.39231L 123.941992 41.99231L 44.341992 81.89231ZM 123.941992 41.99231L 66.141992 98.69231L 78.941992 114.09231L 135.641992 58.39231ZM 78.941992 114.09231L 146.141992 66.39231L 133.041992 51.09231L 66.141992 98.69231ZM 133.041992 51.09231L 76.341992 109.79231L 88.641992 125.79231L 146.141992 66.39231ZM 88.641992 125.79231L 161.741992 84.59231L 149.141992 68.79231L 76.341992 109.79231ZM 149.141992 68.79231L 91.041992 131.99231L 99.341992 152.59231L 161.741992 84.59231ZM 99.341992 152.59231L 122.641992 154.09231L 111.341992 133.29231L 91.041992 131.99231ZM 111.341992 133.29231L 105.641992 143.29231L 120.741992 157.49231L 122.641992 154.09231ZM 120.741992 157.49231L 172.441992 124.09231L 158.041992 109.59231L 105.641992 143.29231ZM 158.041992 109.59231L 143.741992 131.39231L 154.241992 152.09231L 172.441992 124.09231ZM 154.241992 152.09231L 177.941992 153.49231L 173.441992 133.19231L 143.741992 131.39231ZM 173.441992 133.19231L 160.541992 140.09231L 170.041992 157.69231L 177.941992 153.49231ZM 158.741992 96.29231L 126.341992 118.69231L 137.741992 135.09231L 170.141992 112.69231Z" fill-rule="nonzero"></path></g></g></g><g id="g-root-tx_advanced_4maud8b56r5y-fill" data-item-order="0" transform="translate(22, 4)"><g id="tx_advanced_4maud8b56r5y-fill" stroke="none" fill="#484848"><g><text style="font: bold 25px &quot;Shantell Sans&quot;, cursive; white-space: pre;" font-weight="bold" font-size="25px" font-family="'Shantell Sans', cursive"><tspan x="54.88" y="47.5" dominant-baseline="ideographic">Mithram's Advanced Medical </tspan><tspan x="112.66" y="77.5" dominant-baseline="ideographic">Analysis Breakdown</tspan></text></g></g></g><g id="g-root-tx_nftbased_djt9vgb5az2a-fill" data-item-order="0" transform="translate(4, 88)"><g id="tx_nftbased_djt9vgb5az2a-fill" stroke="none" fill="#484848"><g><text style="font: 20px &quot;Shantell Sans&quot;, cursive; white-space: pre;" font-size="20px" font-family="'Shantell Sans', cursive"><tspan x="26.22" y="35.5" dominant-baseline="ideographic">NFT-based </tspan><tspan x="31.83" y="59.5" dominant-baseline="ideographic">Metadata </tspan><tspan x="15.94" y="83.5" dominant-baseline="ideographic">Integration</tspan></text></g></g></g><g id="g-root-tx_genesisp_13z8lksb5cete-fill" data-item-order="0" transform="translate(364, 112)"><g id="tx_genesisp_13z8lksb5cete-fill" stroke="none" fill="#484848"><g><text style="font: 20px &quot;Shantell Sans&quot;, cursive; white-space: pre;" font-size="20px" font-family="'Shantell Sans', cursive"><tspan x="12" y="35.5" dominant-baseline="ideographic">GENESIS </tspan><tspan x="12" y="59.5" dominant-baseline="ideographic">Protocol</tspan></text></g></g></g><g id="g-root-conn_8yzz24b59kpb-fill" data-item-order="0" transform="translate(147.93701171875, 183.81341552734375)"></g><g id="g-root-yuan_18laukcb5b1fo-fill" data-item-order="0" transform="translate(292.186767578125, 183.93682861328125)"></g><g id="g-root-heal_4maud8b56r5z-fill" data-item-order="0" transform="translate(208, 243.99609375)"></g><g id="g-root-sync_hvvxh8b59m2q-fill" data-item-order="0" transform="translate(147.813232421875, 328.06298828125)"></g><g id="g-root-anal_m9u0ccb5b0g7-fill" data-item-order="0" transform="translate(292.063232421875, 328.186767578125)"></g><g id="g-root-tx_blockcha_8cri4b5b0na-fill" data-item-order="0" transform="translate(4, 400)"><g id="tx_blockcha_8cri4b5b0na-fill" stroke="none" fill="#484848"><g><text style="font: 20px &quot;Shantell Sans&quot;, cursive; white-space: pre;" font-size="20px" font-family="'Shantell Sans', cursive"><tspan x="25.55" y="35.5" dominant-baseline="ideographic">Blockchain </tspan><tspan x="19.24" y="59.5" dominant-baseline="ideographic">Technology</tspan></text></g></g></g><g id="g-root-tx_aitechni_1cu94qkb5cgek-fill" data-item-order="0" transform="translate(364, 400)"><g id="tx_aitechni_1cu94qkb5cgek-fill" stroke="none" fill="#484848"><g><text style="font: 20px &quot;Shantell Sans&quot;, cursive; white-space: pre;" font-size="20px" font-family="'Shantell Sans', cursive"><tspan x="12" y="35.5" dominant-baseline="ideographic">AI Techniques</tspan></text></g></g></g><g id="g-root-0.cr-big_cr_mcydrwb56ryh-stroke" data-item-order="-82940" transform="translate(184, 220)"><g id="0.cr-big_cr_mcydrwb56ryh-stroke" fill="none" stroke-linecap="round" stroke-linejoin="round" stroke-miterlimit="4" stroke="#484848" stroke-width="4"><g><path d="M 10 70C 10.5 103.1 36.9 128.8 70 130C 103.1 131.2 129.5 103.1 130 70C 130.2 53.9 123.7 39.1 113.3 28.4C 102.3 17.2 87 9.4 70 10C 36.9 11.1 11.5 36.9 10 70"></path><path d="M 10 70C 10.000003 103.137088 36.862918 130.000003 70.000003 130.000003C 103.137088 130.000003 130.000003 103.137088 130.000003 70.000003C 130.000003 36.862918 103.137088 10.000003 70.000003 10.000003C 36.862918 10.000003 10.000003 36.862918 10.000003 70.000003"></path></g></g></g><g id="g-root-4.cu_sy_hx4vngb56sqq-stroke" data-item-order="-82936" transform="translate(100.0076904296875, 136.007568359375)"><g id="4.cu_sy_hx4vngb56sqq-stroke" fill="none" stroke-linecap="round" stroke-linejoin="round" stroke-miterlimit="4" stroke="#484848" stroke-width="4"><g><path d="M 152.49231 93.992432C 153.29231 93.992432 153.89231 93.292432 153.99231 92.492432C 155.69231 82.992432 153.59231 73.192432 153.99231 63.592432C 154.09231 62.092432 151.69231 61.192432 150.49231 62.092432C 148.69231 63.392432 146.29231 64.492432 143.99231 63.992432C 137.49231 62.592432 132.39231 58.592432 131.99231 51.992432C 131.59231 45.392432 137.69231 41.892432 143.99231 39.992432C 146.29231 39.292432 148.99231 40.292432 150.49231 41.892432C 151.49231 42.992432 154.39231 41.792432 153.99231 40.392432C 151.59231 31.092432 153.79231 21.092432 153.99231 11.492432C 153.99231 10.692432 153.29231 9.892432 152.49231 9.992432C 127.29231 14.592432 102.89231 17.292432 82.09231 29.192432C 58.89231 42.392432 39.29231 61.892432 27.09231 85.792432C 16.89231 105.992432 10.69231 128.392432 9.99231 152.492432C 9.99231 153.292432 10.69231 153.992432 11.49231 153.992432C 21.19231 153.492432 30.89231 153.392432 40.49231 153.992432C 41.99231 154.092432 42.69231 156.092432 41.99231 157.392432C 41.09231 159.392432 40.59231 161.492432 40.19231 163.792432C 38.79231 170.292432 45.49231 175.492432 52.19231 175.792432C 58.79231 176.192432 64.79231 170.392432 64.19231 163.792432C 63.89231 161.492432 63.59231 159.192432 62.29231 157.392432C 61.49231 156.192432 62.39231 153.492432 63.79231 153.992432C 73.09231 157.792432 83.99231 154.892432 93.99231 153.992432C 95.49231 137.992432 101.39231 124.192432 110.69231 112.492432C 120.19231 100.492432 136.19231 96.292432 152.49231 93.992432"></path><path d="M 152.4887 94.006C 153.3166 93.9853 153.9924 93.3157 153.9924 92.4875L 153.9924 63.5932C 153.9924 62.1081 151.7293 61.2847 150.4807 62.0887C 148.61 63.2934 146.3828 63.9924 143.9923 63.9924C 137.3649 63.9924 131.9923 58.6198 131.9923 51.9924C 131.9923 45.365 137.3649 39.9924 143.9923 39.9924C 146.3828 39.9924 148.61 40.6914 150.4807 41.8961C 151.7293 42.7001 153.9924 41.8767 153.9924 40.3916L 153.9924 11.4924C 153.9924 10.6639 153.3138 9.9916 152.4854 10.0001C 74.1522 10.8032 10.8032 74.1522 10.0001 152.4854C 9.9916 153.3138 10.6639 153.9924 11.4924 153.9924L 40.5231 153.9924C 41.9907 153.9924 42.8023 156.1763 42.0156 157.4152C 40.8362 159.2725 40.1532 161.476 40.1532 163.8391C 40.1532 170.4665 45.5258 175.8391 52.1532 175.8391C 58.7806 175.8391 64.1532 170.4665 64.1532 163.8391C 64.1532 161.476 63.4702 159.2725 62.2908 157.4152C 61.5041 156.1763 62.3157 153.9924 63.7833 153.9924L 94.013 153.9924C 94.0161 153.9924 94.0186 153.9899 94.0186 153.9869C 94.0186 121.3612 120.0586 94.8176 152.4887 94.006Z"></path></g></g></g><g id="g-root-3.cu_sy_hx4vngb56sqr-stroke" data-item-order="-82932" transform="translate(100.0078125, 280)"><g id="3.cu_sy_hx4vngb56sqr-stroke" fill="none" stroke-linecap="round" stroke-linejoin="round" stroke-miterlimit="4" stroke="#484848" stroke-width="4"><g><path d="M 63.992188 20C 62.392187 26.4 58.392187 33.7 51.992188 32C 45.592188 30.3 40.892187 26.6 39.992188 20C 39.692187 17.6 41.392187 15.7 41.892187 13.5C 42.192187 12.1 41.892187 9.7 40.392187 10C 30.992188 12.1 21.092187 10.4 11.492188 10C 10.692187 10 9.692187 10.7 9.992188 11.5C 18.192187 33.7 16.292188 57.5 26.592187 77.2C 38.592188 100.1 56.992188 119.1 78.892187 132.9C 100.192187 146.3 125.492188 153.2 152.492188 154C 153.292188 154 153.892187 153.3 153.992188 152.5C 154.792188 142.9 155.292188 133.2 153.992188 123.6C 153.792188 122.2 156.392187 121.2 157.492188 122.1C 159.292188 123.5 161.692188 124.5 163.992188 124C 170.492188 122.7 174.492188 118.5 175.992188 112C 177.592188 105.6 170.392187 98.1 163.992188 100C 161.792188 100.8 159.492188 101 157.492188 102C 156.192188 102.6 154.392187 101.9 153.992188 100.4C 151.492188 91.1 154.092188 81.1 153.992188 71.5C 153.992188 70.7 153.292188 69.9 152.492188 70C 120.792188 73.7 93.892187 43.5 93.992188 11.5C 93.992188 10.7 93.292188 10.2 92.492188 10C 83.092188 7.8 73.192187 8.9 63.592188 10C 62.092188 10.2 61.692187 12.1 62.092188 13.5C 62.692187 15.7 63.192187 17.7 63.992188 20"></path><path d="M 63.9924 20C 63.9924 26.6275 58.619801 32 51.9924 32C 45.365001 32 39.992399 26.6275 39.992399 20C 39.992399 17.6096 40.6914 15.3824 41.8961 13.5117C 42.700101 12.2631 41.876701 10.0001 40.391599 10.0001L 11.492401 10.0001C 10.663901 10.0001 9.991601 10.6787 10.000101 11.507C 10.803201 89.8402 74.1522 153.1893 152.485401 153.9924C 153.313801 154.0009 153.9924 153.3285 153.9924 152.5001L 153.9924 123.6365C 153.9924 122.1465 156.2787 121.3194 157.530101 122.1281C 159.404001 123.3389 161.637001 124.0418 164.0341 124.0418C 170.661501 124.0418 176.0341 118.6692 176.0341 112.0418C 176.0341 105.4144 170.661501 100.0418 164.0341 100.0418C 161.637001 100.0418 159.404001 100.7447 157.530101 101.9556C 156.2787 102.7642 153.9924 101.9371 153.9924 100.4471L 153.9924 71.4857C 153.9924 70.6573 153.316401 69.9877 152.4883 69.9672C 120.5546 69.1772 94.812501 43.4369 94.0195 11.504C 93.9989 10.676 93.3293 9.999999 92.501 10L 63.593201 10C 62.1081 10 61.2847 12.2631 62.088701 13.5117C 63.293401 15.3824 63.9924 17.6096 63.9924 20Z"></path></g></g></g><g id="g-root-2.cu_sy_91hvekb56tjg-stroke" data-item-order="-82928" transform="translate(243.9993896484375, 258.1610107421875)"><g id="2.cu_sy_91hvekb56tjg-stroke" fill="none" stroke-linecap="round" stroke-linejoin="round" stroke-miterlimit="4" stroke="#484848" stroke-width="4"><g><path d="M 123.90061 31.838989C 122.40061 32.138989 121.50061 29.538989 122.40061 28.438989C 123.70061 26.738989 124.80061 24.338989 124.20061 22.038989C 122.50061 15.638989 118.80061 9.338989 112.20061 10.038989C 105.60061 10.638989 101.90061 15.538989 100.20061 22.038989C 99.70061 24.338989 100.80061 26.638989 102.10061 28.438989C 102.90061 29.638989 102.10061 31.738989 100.60061 31.838989C 90.90061 32.438989 81.20061 31.538989 71.50061 31.838989C 70.70061 31.838989 70.20061 32.538989 70.00061 33.338989C 62.30061 64.338989 43.40061 90.638989 11.50061 91.838989C 10.70061 91.838989 10.10061 92.538989 10.00061 93.338989C 8.40061 102.838989 11.40061 112.738989 10.00061 122.238989C 9.80061 123.738989 12.10061 124.138989 13.50061 123.838989C 15.70061 123.338989 17.60061 121.838989 20.00061 121.838989C 26.70061 121.938989 31.00061 127.338989 32.00061 133.838989C 33.10061 140.438989 26.70061 146.238989 20.00061 145.838989C 17.60061 145.738989 15.50061 145.138989 13.50061 143.938989C 12.30061 143.238989 10.50061 144.038989 10.00061 145.438989C 6.60061 154.538989 9.40061 164.738989 10.00061 174.338989C 10.10061 175.138989 10.70061 175.638989 11.50061 175.838989C 30.50061 179.438989 49.10061 171.238989 66.10061 164.538989C 84.90061 157.138989 102.70061 146.138989 115.00061 130.438989C 125.40061 117.038989 136.70061 103.838989 142.80061 87.638989C 149.20061 70.738989 154.50061 52.638989 154.00061 33.338989C 154.00061 32.538989 153.30061 31.938989 152.50061 31.838989C 143.00061 31.038989 133.40061 31.338989 123.90061 31.838989"></path><path d="M 123.8685 31.843C 122.4013 31.843 121.5899 29.6609 122.3762 28.4222C 123.555 26.5652 124.2376 24.3623 124.2376 22C 124.2376 15.3726 118.865 10 112.2376 10C 105.6102 10 100.2376 15.3726 100.2376 22C 100.2376 24.3623 100.9202 26.5653 102.099 28.4222C 102.8852 29.6609 102.0739 31.843 100.6067 31.843L 71.4999 31.8431C 70.6715 31.8431 70.0018 32.5192 69.9814 33.3474C 69.1953 65.2893 43.4463 91.0384 11.5044 91.8246C 10.6762 91.845 10.0001 92.5146 10.0001 93.3431L 10 122.2862C 10 123.7762 12.2867 124.6034 13.5382 123.7947C 15.4122 122.5837 17.6453 121.8808 20.0425 121.8808C 26.6699 121.8808 32.0425 127.2533 32.0425 133.8808C 32.0425 140.5082 26.6699 145.8808 20.0425 145.8808C 17.6453 145.8808 15.4122 145.1778 13.5382 143.9668C 12.2867 143.1581 10 143.9853 10 145.4753L 10 174.343C 9.999999 175.1714 10.6785 175.8438 11.5069 175.8353C 89.8401 175.0321 153.1891 111.6831 153.9923 33.3499C 154.0008 32.5215 153.3284 31.843 152.5 31.843L 123.8685 31.843Z"></path></g></g></g><g id="g-root-1.cu_sy_91hvekb56tjh-stroke" data-item-order="-82924" transform="translate(221.9580078125, 136.0076904296875)"><g id="1.cu_sy_91hvekb56tjh-stroke" fill="none" stroke-linecap="round" stroke-linejoin="round" stroke-miterlimit="4" stroke="#484848" stroke-width="4"><g><path d="M 92.041992 152.49231C 91.841992 153.29231 92.741992 153.99231 93.541992 153.99231C 103.241992 154.39231 113.041992 155.09231 122.641992 153.99231C 124.141992 153.79231 124.541992 151.99231 124.141992 150.59231C 123.641992 148.39231 122.141992 146.49231 122.241992 144.19231C 122.741992 137.49231 127.641992 132.29231 134.241992 132.19231C 140.941992 132.09231 147.341992 137.59231 146.241992 144.19231C 145.841992 146.49231 146.041992 149.09231 144.441992 150.59231C 143.341992 151.49231 144.441992 153.99231 145.941992 153.99231C 155.441992 153.89231 165.041992 154.69231 174.541992 153.99231C 175.341992 153.89231 176.041992 153.29231 176.041992 152.49231C 175.441992 140.39231 173.541992 128.79231 171.341992 117.39231C 169.041992 105.09231 164.841992 92.99231 157.441992 83.19231C 149.341992 72.49231 141.841992 61.59231 133.141992 51.49231C 125.041992 41.89231 113.541992 35.79231 103.141992 28.69231C 92.941992 21.79231 81.141992 17.09231 68.741992 14.69231C 57.341992 12.49231 45.741992 10.59231 33.541992 9.99231C 32.741992 9.99231 31.841992 10.69231 32.041992 11.49231C 34.841992 20.69231 33.341992 30.89231 32.041992 40.39231C 31.841992 41.89231 29.641992 42.89231 28.541992 41.99231C 26.741992 40.59231 24.341992 39.69231 22.041992 39.99231C 15.441992 40.89231 9.841992 45.39231 10.041992 51.99231C 10.141992 58.69231 15.341992 63.59231 22.041992 63.99231C 24.441992 64.19231 26.941992 63.69231 28.541992 62.09231C 29.541992 61.09231 31.841992 62.19231 32.041992 63.59231C 33.441992 73.69231 33.841992 83.99231 32.041992 93.99231C 64.641992 93.59231 90.041992 120.09231 92.041992 152.49231"></path><path d="M 92.0406 152.4883C 92.0612 153.3163 92.7308 153.9923 93.5591 153.9923L 122.647 153.9923C 124.1137 153.9923 124.9248 151.8121 124.139 150.5737C 122.9609 148.7171 122.2788 146.5149 122.2788 144.1533C 122.2788 137.5259 127.6514 132.1533 134.2788 132.1533C 140.9062 132.1533 146.2788 137.5259 146.2788 144.1533C 146.2788 146.5149 145.5966 148.7171 144.4185 150.5737C 143.6327 151.8122 144.4438 153.9923 145.9106 153.9923L 174.542 153.9924C 175.3704 153.9924 176.0428 153.3138 176.0343 152.4854C 175.2311 74.1522 111.8821 10.8032 33.5489 10.0001C 32.7206 9.9916 32.042 10.6639 32.042 11.4924L 32.042 40.4395C 32.042 41.9295 29.7556 42.7566 28.5041 41.9479C 26.6301 40.737 24.3972 40.0341 22 40.0341C 15.3726 40.0341 10 45.4067 10 52.0341C 10 58.6615 15.3726 64.0341 22 64.0341C 24.3972 64.0341 26.6301 63.3312 28.5041 62.1203C 29.7556 61.3116 32.042 62.1388 32.042 63.6288L 32.042 93.9876C 32.042 93.9972 32.0498 94.005 32.0594 94.005C 64.6894 94.005 91.2358 120.0521 92.0406 152.4883Z"></path></g></g></g><g id="g-root-tx_advanced_4maud8b56r5y-stroke" data-item-order="0" transform="translate(22, 4)"></g><g id="g-root-tx_nftbased_djt9vgb5az2a-stroke" data-item-order="0" transform="translate(4, 88)"></g><g id="g-root-tx_genesisp_13z8lksb5cete-stroke" data-item-order="0" transform="translate(364, 112)"></g><g id="g-root-conn_8yzz24b59kpb-stroke" data-item-order="0" transform="translate(147.93701171875, 183.81341552734375)"><g id="conn_8yzz24b59kpb-stroke" fill="none" stroke-linecap="round" stroke-linejoin="round" stroke-miterlimit="4" stroke="#484848" stroke-width="2"><g><path d="M 27.200001 25.200001C 35.400002 22.799999 43.400002 22 42.799999 18.4C 42 14.6 35.799999 11.4 27.200001 11.6C 18.4 11.6 12.4 14.6 11.6 18.4C 10.6 22 18.6 24.4 27.200001 25.200001M 11.6 18.4C 12 21.799999 10.6 25.4 11.6 28.799999C 12.6 32.400002 18.799999 37.599998 27.200001 35.599998C 35.400002 33.400002 41.799999 32.400002 42.799999 28.799999C 43.400002 25.4 41.400002 21.6 42.799999 18.4M 42.799999 36.599998C 43.200001 34 42.400002 31.200001 42.799999 28.6M 11.6 28.6C 10.6 32 11.2 35.599998 11.6 39.200001C 11.8 42.799999 19 43.200001 27.200001 46M 40 48.599998C 41.400002 48 43.400002 47 43 45.599998C 42.400002 44 41.599998 42.599998 40 42.599998C 38.200001 42.400002 36.599998 43.799999 37 45.599998C 37.200001 47.200001 38.200001 49 40 48.599998M 48 56.599998C 49.599998 56.200001 50.599998 55.200001 51 53.599998C 51.200001 51.799999 49.400002 50 48 50.599998C 46.400002 51 45.200001 51.799999 45 53.599998C 44.599998 55.200001 46.200001 56.400002 48 56.599998M 53.599998 46.599998C 55.200001 46.599998 56 45 56.599998 43.599998C 57 42 55 40 53.599998 40.599998C 52 41 50 42 50.599998 43.599998C 51 45 52 47 53.599998 46.599998M 10 10M 51.799999 46C 51.200001 47.599998 50.799999 49.599998 49.799999 51M 10 10M 42.200001 47.599998C 43.200001 49 44.400002 50.200001 45.799999 51.599998M 32 56.599998C 33.400002 57.200001 35.400002 55 35 53.599998C 34.400002 52 33.400002 51 32 50.599998C 30.4 50 29 51.799999 29 53.599998C 28.799999 55.200001 30.200001 56.599998 32 56.599998M 10 10M 37.799999 47.599998C 36.200001 48.400002 35.200001 50.200001 34 51.599998"></path><path d="M 27.1 25.1C 35.715599 25.1 42.700001 22.05554 42.700001 18.299999C 42.700001 14.54446 35.715599 11.5 27.1 11.5C 18.48436 11.5 11.5 14.54446 11.5 18.299999C 11.5 22.05554 18.48436 25.1 27.1 25.1ZM 11.5 18.300041L 11.5 28.700041C 11.5 32.5 18.5 35.5 27.1 35.5C 35.700001 35.5 42.700001 32.5 42.700001 28.700041L 42.700001 18.300041M 42.700001 36.5L 42.700001 28.699961M 11.5 28.699961L 11.5 39.099998C 11.5 42.900002 18.5 45.900002 27.1 45.900002M 39.900002 48.5C 41.556801 48.5 42.900002 47.156799 42.900002 45.5C 42.900002 43.843201 41.556801 42.5 39.900002 42.5C 38.243202 42.5 36.900002 43.843201 36.900002 45.5C 36.900002 47.156799 38.243202 48.5 39.900002 48.5ZM 47.900002 56.5C 49.556801 56.5 50.900002 55.156799 50.900002 53.5C 50.900002 51.843201 49.556801 50.5 47.900002 50.5C 46.243198 50.5 44.900002 51.843201 44.900002 53.5C 44.900002 55.156799 46.243198 56.5 47.900002 56.5ZM 53.500198 46.5C 55.157001 46.5 56.500198 45.156799 56.500198 43.5C 56.500198 41.843201 55.157001 40.5 53.500198 40.5C 51.843201 40.5 50.500198 41.843201 50.500198 43.5C 50.500198 45.156799 51.843201 46.5 53.500198 46.5ZM 10 10M 51.700001 45.900002L 49.700001 51.0998M 10 10M 42.099998 47.5L 45.700001 51.5M 31.9 56.5C 33.556801 56.5 34.900002 55.156799 34.900002 53.5C 34.900002 51.843201 33.556801 50.5 31.9 50.5C 30.2432 50.5 28.900021 51.843201 28.900021 53.5C 28.900021 55.156799 30.2432 56.5 31.9 56.5ZM 10 10M 37.700001 47.5L 34.099998 51.5"></path></g></g></g><g id="g-root-yuan_18laukcb5b1fo-stroke" data-item-order="0" transform="translate(292.186767578125, 183.93682861328125)"><g id="yuan_18laukcb5b1fo-stroke" fill="none" stroke-linecap="round" stroke-linejoin="round" stroke-miterlimit="4" stroke="#484848" stroke-width="2"><g><path d="M 17.799999 12.4C 18.799999 11.8 20 11.6 21 11.6C 23.200001 11.8 25.6 12.2 26.799999 14C 27.799999 15.8 29.200001 17.6 29 19.6C 28.799999 21.799999 29.799999 24.200001 29 26.200001C 28.799999 26.6 29 27.200001 29 27.6M 27 31.6C 25.6 32.200001 24.6 34 23 34C 21.4 34 19.6 34.599998 18.200001 33.799999C 16.799999 32.799999 15 32.200001 14.4 30.799999C 13.8 29.200001 13.6 27.799999 13 26.200001C 12.4 24.200001 12.4 21.6 13 19.6C 13.6 18.200001 13.2 16.200001 14.4 15.2M 17.200001 26.200001C 17.6 27.200001 17.4 28.4 18.200001 29C 19.200001 29.6 20 30.4 21 30.200001C 22.200001 30 23 29.799999 23.799999 29C 24.799999 28.4 25.200001 27.200001 25 26.200001C 24.799999 24 24.4 21.6 25 19.6C 25.4 18.6 24.6 17.6 23.799999 16.799999C 23.200001 16 22.200001 15.8 21 15.6C 20 15.6 19.200001 16.200001 18.200001 16.799999C 17.4 17.4 17 18.6 17.200001 19.6C 17.200001 20.4 17 21.200001 17.200001 22M 21 19.6C 21.200001 20.200001 21 21 21 21.6M 21 25.6C 21.200001 25.799999 21.200001 26.200001 21 26.6M 34.599998 18C 40 19.4 46 16.6 51.400002 18C 53.200001 18.6 54.599998 19.6 55 21.6C 55.400002 25 55.599998 28.6 55 31.799999C 53.400002 38.599998 54.799999 45.799999 55 52.799999C 55 54.799999 53.200001 56.200001 51.400002 56.400002C 45.799999 56.799999 40.200001 55.799999 34.599998 56.400002C 32.599998 56.599998 31 54.799999 31 52.799999C 30.799999 47.200001 30.6 41.400002 31 35.799999M 31 46.799999C 39 46.799999 47.200001 44.599998 55 46.799999M 42.599998 52.200001C 42.400002 52.400002 42.200001 52 42 51.599998C 42 51.400002 42.400002 51 42.599998 51M 42.599998 52.200001C 43 52.200001 43.400002 52 43.200001 51.599998C 43.200001 51.400002 43 51 42.599998 51M 38.599998 25.6C 38.599998 26.799999 38.599998 28.200001 38.599998 29.6C 38.799999 30 38.599998 30.6 39 31C 39.400002 31.4 39.599998 31.799999 39.799999 32.400002C 40 32.799999 40.599998 33 41.200001 33.200001C 41.599998 33.400002 42.200001 33.400002 42.599998 33.400002C 43.200001 33.599998 43.799999 33.400002 44.200001 33.200001C 44.599998 33 45 32.599998 45.400002 32.400002C 46 32.200001 46 31.4 46.400002 31C 46.599998 30.6 46.799999 30 46.599998 29.6C 46.200001 28.4 46.400002 26.799999 46.599998 25.6M 42.599998 33.400002C 43.400002 36 41.799999 38.799999 42.599998 41.200001M 38.599998 37.799999C 41.400002 38 44 37.200001 46.599998 37.799999"></path><path d="M 17.75684 12.36176C 18.80122 11.890636 19.93368 11.64651 21.07942 11.645508C 23.190079 11.645508 25.2143 12.48396 26.70676 13.97644C 28.199221 15.468901 29.03768 17.49312 29.03768 19.603779L 29.03768 26.22904C 29.035 26.675119 29.00176 27.120501 28.9382 27.56204M 27.008181 31.541201C 25.93626 32.756599 24.51878 33.615997 22.945301 34.003998C 21.37182 34.3922 19.71736 34.2906 18.203121 33.7132C 16.6889 33.135597 15.3871 32.109398 14.4718 30.771999C 13.556499 29.434601 13.071341 27.8496 13.0812 26.228979L 13.0812 19.60372C 13.08162 18.023281 13.5526 16.47876 14.4341 15.167M 17.10058 26.230379C 17.10058 27.2857 17.519821 28.297819 18.266041 29.044041C 19.01228 29.790279 20.02438 30.2096 21.07972 30.2096C 22.135059 30.2096 23.14716 29.790279 23.8934 29.044041C 24.63962 28.297819 25.058861 27.2857 25.058861 26.230379L 25.058861 19.60512C 25.058861 18.54978 24.63962 17.53768 23.8934 16.791439C 23.14716 16.0452 22.135059 15.62598 21.07972 15.62598C 20.02438 15.62598 19.01228 16.0452 18.266041 16.791439C 17.519821 17.53768 17.10058 18.54978 17.10058 19.60512L 17.10058 22.092079M 21.0791 19.6045L 21.0791 21.594059M 21.0791 25.57324L 21.0791 26.56802M 34.563801 18.040039L 51.326599 18.040039C 53.310398 18.040039 54.918598 19.64826 54.918598 21.63208L 54.918598 31.893801L 54.918598 52.763199C 54.918598 54.747002 53.310398 56.355202 51.326599 56.355202L 34.563801 56.355202C 32.5798 56.355202 30.9716 54.747002 30.9716 52.763199L 30.9716 35.838799M 30.9716 46.7784L 54.918999 46.7784M 42.646 52.2272C 42.315399 52.2272 42.047401 51.959 42.047401 51.628399C 42.047401 51.297798 42.315399 51.0298 42.646 51.0298M 42.645802 52.2272C 42.976398 52.2272 43.2444 51.959 43.2444 51.628399C 43.2444 51.297798 42.976398 51.0298 42.645802 51.0298M 38.6884 25.57324L 38.6884 29.53084C 38.6884 30.0506 38.790802 30.565201 38.989601 31.045401C 39.1884 31.5256 39.48 31.9618 39.847603 32.329201C 40.215 32.6968 40.651199 32.9884 41.131401 33.187202C 41.611603 33.386002 42.126202 33.4884 42.646 33.4884C 43.1656 33.4884 43.680401 33.386002 44.1604 33.187202C 44.640598 32.9884 45.077 32.6968 45.444401 32.329201C 45.811798 31.9618 46.103401 31.5256 46.302399 31.045401C 46.501202 30.565201 46.6036 30.0506 46.6036 29.53084L 46.6036 25.57324M 42.646198 33.4888L 42.646198 41.154602M 38.6884 37.777397L 46.6036 37.777397"></path></g></g></g><g id="g-root-heal_4maud8b56r5z-stroke" data-item-order="0" transform="translate(208, 243.99609375)"><g id="heal_4maud8b56r5z-stroke" fill="none" stroke-linecap="round" stroke-linejoin="round" stroke-miterlimit="4" stroke="#484848" stroke-width="2"><g><path d="M 46.900002 77.199997C 46.300003 79 45.400002 80.800003 43.599998 80.5C 34 79.300003 24.400002 80.199997 14.8 80.5C 13 80.5 12.1 79 11.5 77.199997C 10.6 74.800003 10.9 71.800003 11.5 69.399994C 13.6 59.800003 19.6 50.5 29.200001 51.699997C 38.800003 52.599998 43.300003 60.100002 46.900002 69.399994C 47.800003 71.800003 46.300003 74.800003 46.900002 77.199997M 22.299999 62.5C 22.299999 62.800003 22.900002 63.100002 23.200001 63.399998C 23.5 63.399998 24.099998 62.800003 23.799999 62.5C 23.799999 62.199997 23.5 61.600002 23.200001 61.899998C 22.900002 61.899998 22.299999 62.199997 22.299999 62.5M 34.300003 62.5C 34.599998 62.800003 34.900002 63.399998 35.199997 63.100002C 35.5 63.100002 35.800003 62.800003 35.800003 62.5C 36.099998 62.199997 35.5 61.899998 35.199997 61.600002C 34.900002 61.600002 34.300003 62.199997 34.300003 62.5M 29.200001 51.699997C 28.900002 49.300003 28.599998 47.199997 29.200001 45.099998M 24.400002 40.300003C 23.5 42.699997 26.5 44.800003 29.200001 45.099998C 31.900002 45.400002 34 43 34 40.300003C 34 37.599998 31.599998 34.599998 29.200001 35.5C 26.799999 36.400002 24.700001 37.599998 24.400002 40.300003M 11.5 72.399994C 23.200001 72.100006 35.199997 72.100006 46.900002 72.399994M 71.5 26.799999C 71.5 26.200001 70.899994 25.599998 70.300003 25.599998C 68.800003 25.900002 67.600006 25.599998 66.399994 25.599998C 66.699997 24.400002 66.699997 22.900002 66.399994 21.700001C 66.100006 21.1 65.800003 20.5 65.199997 20.5C 63.399998 20.200001 61.600002 20.5 59.800003 20.5C 59.199997 20.5 58.300003 21.1 58.600002 21.700001C 58.899998 22.900002 58.899998 24.400002 58.600002 25.599998C 57.400002 25.299999 55.900002 25.900002 54.699997 25.599998C 54.099998 25.299999 53.199997 26.200001 53.5 26.799999C 54.099998 28.599998 54.099998 30.400002 53.5 32.200001C 53.199997 32.799999 54.099998 33.099998 54.699997 33.400002C 55.900002 33.700001 57.400002 33.099998 58.600002 33.400002C 58.899998 34.599998 58.600002 35.800003 58.600002 37.300003C 58.600002 37.900002 59.199997 38.800003 59.800003 38.5C 61.600002 38.199997 63.399998 38.800003 65.199997 38.5C 65.800003 38.199997 66.699997 37.900002 66.399994 37.300003C 66.100006 36.099998 66.399994 34.599998 66.399994 33.400002C 67.600006 33.400002 68.800003 33.400002 70.300003 33.400002C 70.899994 33.400002 71.800003 32.799999 71.5 32.200001C 70.899994 30.400002 71.199997 28.599998 71.5 26.799999M 44.5 29.5C 45.400002 39.400002 52.599998 47.199997 62.5 47.5C 72.399994 47.800003 80.199997 39.400002 80.5 29.5C 80.800003 19.6 72.100006 13.9 62.5 11.5C 52.900002 9.1 44.5 19.6 44.5 29.5"></path><path d="M 46.858002 77.287003C 46.856346 79.061974 45.416977 80.5 43.642002 80.5L 14.713 80.5C 12.939195 80.498344 11.501654 79.060806 11.5 77.287003L 11.5 69.25C 11.5 59.48616 19.415159 51.570999 29.179001 51.570999C 38.942844 51.570999 46.858002 59.48616 46.858002 69.25ZM 22.429001 62.5C 22.429001 62.914215 22.764786 63.25 23.179001 63.25C 23.593214 63.25 23.929001 62.914215 23.929001 62.5C 23.929001 62.085785 23.593214 61.75 23.179001 61.75C 22.764786 61.75 22.429001 62.085785 22.429001 62.5M 34.429001 62.481998C 34.429001 62.89621 34.764786 63.231998 35.179001 63.231998C 35.593216 63.231998 35.929001 62.89621 35.929001 62.481998C 35.929001 62.067787 35.593216 61.731998 35.179001 61.731998C 34.764786 61.731998 34.429001 62.067787 34.429001 62.481998M 29.179001 51.570999L 29.179001 45.141998M 24.358 40.320999C 24.358002 42.983566 26.516436 45.142002 29.179001 45.142002C 31.841566 45.142002 34 42.983566 34 40.320999C 34 37.658436 31.841566 35.5 29.179001 35.5C 26.516436 35.5 24.358002 37.658436 24.358002 40.320999M 11.5 72.445L 46.858002 72.445M 71.5 26.929001C 71.499992 26.218208 70.923782 25.641998 70.212997 25.641998L 66.358002 25.642L 66.358002 21.786999C 66.358002 21.076208 65.781784 20.5 65.070999 20.5L 59.929001 20.5C 59.218208 20.5 58.641998 21.076208 58.641998 21.786999L 58.642002 25.642L 54.786999 25.642C 54.076206 25.641998 53.499996 26.218208 53.499996 26.928999L 53.5 32.070999C 53.499996 32.781788 54.076206 33.357998 54.786995 33.357998L 58.642002 33.357998L 58.642002 37.213001C 58.641998 37.92379 59.218208 38.499996 59.929001 38.499996L 65.070999 38.5C 65.781784 38.499996 66.358002 37.92379 66.358002 37.212997L 66.358002 33.357998L 70.212997 33.357998C 70.923782 33.357998 71.499992 32.781788 71.499992 32.070999ZM 44.5 29.5C 44.500004 39.441124 52.558876 47.5 62.5 47.5C 72.441132 47.5 80.5 39.441124 80.5 29.5C 80.5 19.558876 72.441132 11.500001 62.5 11.500001C 52.558876 11.500001 44.500004 19.558876 44.500004 29.5"></path></g></g></g><g id="g-root-sync_hvvxh8b59m2q-stroke" data-item-order="0" transform="translate(147.813232421875, 328.06298828125)"><g id="sync_hvvxh8b59m2q-stroke" fill="none" stroke-linecap="round" stroke-linejoin="round" stroke-miterlimit="4" stroke="#484848" stroke-width="2"><g><path d="M 49.599998 22.6C 49.200001 21.799999 49.599998 21.200001 49.599998 20.6C 49.599998 18.200001 47.599998 16.200001 45.599998 16.6C 42.200001 17 38.799999 15.8 35.599998 16.6M 40 21C 38.200001 19.799999 37.200001 17.6 35.599998 16.6C 36.400002 14.6 38.200001 13 40 12M 17.6 43.599998C 17.799999 44.200001 17.799999 44.799999 17.6 45.599998C 16.799999 47.599998 19.4 48.799999 21.6 49.599998C 24.6 50.400002 28.200001 49.200001 31.6 49.599998M 27 45C 28.200001 46.799999 30 48 31.6 49.599998C 29.799999 50.799999 28.6 52.599998 27 54M 42.599998 29.6C 46.200001 29.200001 50 30.200001 53.599998 29.6C 53.599998 29.6 55.799999 29.6 56.599998 32.599998C 58.400002 39.200001 55.599998 46.599998 56.599998 53.599998C 56.599998 53.599998 56.599998 56.400002 53.599998 56.599998C 49.799999 56.599998 46 58 42.599998 56.599998C 42.599998 56.599998 40.599998 56.200001 39.599998 53.599998C 36.799999 47 37.200001 39.200001 39.599998 32.599998C 39.599998 32.599998 39.599998 29.4 42.599998 29.6M 56.599998 48.599998C 51.200001 46.799999 45.200001 49 39.599998 48.599998M 14.4 21.6C 18.6 20.4 23.200001 21.200001 27.4 21.6C 27.4 21.6 29.6 21.6 30.4 24.6C 31.4 27.4 29.6 30.6 30.4 33.599998C 30.4 33.599998 30.4 37.200001 27.4 36.599998C 23.200001 35.599998 18.799999 36.200001 14.4 36.599998C 14.4 36.599998 10.6 36.400002 11.4 33.599998C 12.4 30.6 10.4 27.200001 11.4 24.6C 11.4 24.6 11.6 22.200001 14.4 21.6M 14 21.6C 13.8 20.6 13.6 19.4 14 18.6C 15.4 14.8 17.200001 11.8 21 11.6C 24.799999 11 27.799999 14.6 28 18.6C 28 19.6 28.200001 20.6 28 21.6M 18 29C 18.799999 29.4 19.6 30.200001 20 31C 21 29.4 23.200001 28.799999 24 27"></path><path d="M 49.504002 22.5L 49.504002 20.5C 49.504002 18.290861 47.713139 16.5 45.504002 16.5L 35.503998 16.5M 40.049999 21.046L 35.503998 16.5L 40.049999 11.954M 17.504 43.5L 17.504 45.5C 17.504 47.709141 19.294861 49.5 21.504 49.5L 31.504 49.5M 26.958 44.953999L 31.504 49.5L 26.958 54.046001M 42.503998 29.5L 53.503998 29.5C 53.503998 29.5 56.503998 29.5 56.503998 32.5L 56.503998 53.5C 56.503998 53.5 56.503998 56.5 53.503998 56.5L 42.503998 56.5C 42.503998 56.5 39.503998 56.5 39.503998 53.5L 39.503998 32.5C 39.503998 32.5 39.503998 29.5 42.503998 29.5M 56.504002 48.5L 39.503998 48.5M 14.496 21.5L 27.496 21.5C 27.496 21.5 30.496 21.5 30.496 24.5L 30.496 33.5C 30.496 33.5 30.496 36.5 27.496 36.5L 14.496 36.5C 14.496 36.5 11.496 36.5 11.496 33.5L 11.496 24.5C 11.496 24.5 11.496 21.5 14.496 21.5M 14 21.542L 14 18.5C 14 14.634007 17.134007 11.5 21 11.5C 24.865993 11.5 28 14.634007 28 18.5L 28 21.542M 17.996 29L 19.996 31L 23.996 27"></path></g></g></g><g id="g-root-anal_m9u0ccb5b0g7-stroke" data-item-order="0" transform="translate(292.063232421875, 328.186767578125)"><g id="anal_m9u0ccb5b0g7-stroke" fill="none" stroke-linecap="round" stroke-linejoin="round" stroke-miterlimit="4" stroke="#484848" stroke-width="2"><g><path d="M 45 51C 46.200001 54 47.799999 57.599998 51 57C 54.200001 56.599998 56.400002 54.200001 57 51C 58.799999 39.799999 53.599998 27.799999 57 17C 58 13.8 54.200001 10.6 51 11C 47.799999 11.4 44 13.8 45 17C 48.599998 27.799999 46 39.799999 45 51M 28 51C 27.799999 54.200001 30.799999 56.799999 34 57C 37.400002 57.200001 38.799999 54 40 51C 41.400002 47.200001 39.599998 43 40 39C 40.200001 35.599998 37.200001 32.400002 34 33C 30.799999 33.599998 27 35.799999 28 39C 29.200001 42.799999 27.4 47 28 51M 11 51C 12.2 54 13.8 57.799999 17 57C 20.200001 56.200001 23.799999 54.200001 23 51C 22.200001 47.799999 20.200001 44.400002 17 45C 13.8 45.599998 11.4 47.799999 11 51"></path><path d="M 45 51C 45 54.313709 47.686295 57 51 57C 54.313709 57 57 54.313709 57 51L 57 17C 57 13.686292 54.313709 11 51 11C 47.686295 11 45 13.686292 45 17ZM 28 51C 28 54.313709 30.686293 57 34 57C 37.313709 57 40 54.313709 40 51L 40 39C 40 35.686295 37.313709 33 34 33C 30.686293 33 28 35.686295 28 39ZM 11 51C 11 54.313709 13.686292 57 17 57C 20.313709 57 23 54.313709 23 51C 23 47.686295 20.313709 45 17 45C 13.686292 45 11 47.686295 11 51"></path></g></g></g><g id="g-root-tx_blockcha_8cri4b5b0na-stroke" data-item-order="0" transform="translate(4, 400)"></g><g id="g-root-tx_aitechni_1cu94qkb5cgek-stroke" data-item-order="0" transform="translate(364, 400)"></g></g></g></svg>